<svg width="20" height="20" viewBox="0 0 20 20" fill="none" xmlns="http://www.w3.org/2000/svg">
<path d="M10 9.9L18.8022 1L19 1.2L10.1978 10.1L18.8022 18.8L18.6044 19L10 10.3L1.3956 19L1.1978 18.8L9.8022 10.1L1 1.2L1.1978 1L10 9.9Z" fill="#2D2926"/>
<path d="M10.7716 9.13004L10.0652 8.4222L10.7716 9.13004ZM13.8313 6.02393L13.1161 5.325L13.8313 6.02393ZM15.3592 4.46901L14.6479 3.76614L15.3592 4.46901ZM16.507 3.72903L15.7964 3.02544L16.507 3.72903ZM13.4424 6.83029L14.1491 7.53782L13.4424 6.83029ZM11.5538 11.4785L10.8452 12.184L11.5538 11.4785ZM14.6335 14.5648L15.3455 13.8627L14.6335 14.5648ZM18.0343 18.2264L17.5786 19.1166L18.0343 18.2264ZM16.8509 17.2235L16.1312 17.9178L16.8509 17.2235ZM15.3235 15.668L16.0308 14.9611L15.3235 15.668ZM12.2468 12.5788L11.5287 13.2747L12.2468 12.5788ZM10.7215 11.0748L11.4067 10.3465L10.7215 11.0748ZM9.18488 11.1251L8.47711 10.4187L9.18488 11.1251ZM6.11853 14.2247L6.81755 14.9398L6.11853 14.2247ZM4.57709 15.7663L3.86192 15.0673L4.57709 15.7663ZM3.0495 17.3216L3.76119 18.0241L3.0495 17.3216ZM1.96275 18.2235L1.59689 17.2928L1.96275 18.2235ZM7.00726 12.9249L6.28428 12.2341L7.00726 12.9249ZM9.04357 9.82262L8.0977 10.1472L9.04357 9.82262ZM7.99682 8.27644L7.29651 8.99028L7.99682 8.27644ZM4.93184 5.17554L5.65512 4.48498L4.93184 5.17554ZM3.40545 3.61908L2.70091 4.32874L3.40545 3.61908ZM6.26587 6.12438L5.56571 6.83836L6.26587 6.12438ZM7.81173 7.6616L7.10168 8.36575L7.81173 7.6616ZM9.28963 9.16778L10.0074 8.47146L9.28963 9.16778ZM10.7716 9.13004L11.4779 9.83788C11.9949 9.32202 12.509 8.80336 13.0203 8.28192L12.3063 7.58179L11.5923 6.88167C11.086 7.39794 10.577 7.91145 10.0652 8.4222L10.7716 9.13004ZM12.3063 7.58179L13.0203 8.28192C13.5295 7.76266 14.0382 7.24297 14.5465 6.72285L13.8313 6.02393L13.1161 5.325C12.6086 5.84432 12.1006 6.36321 11.5923 6.88167L12.3063 7.58179ZM13.8313 6.02393L14.5465 6.72285C15.0531 6.20445 15.5611 5.68746 16.0705 5.17187L15.3592 4.46901L14.6479 3.76614C14.1359 4.28435 13.6252 4.80397 13.1161 5.325L13.8313 6.02393ZM15.3592 4.46901L16.0705 5.17187C16.5789 4.65743 17.0899 4.14562 17.6035 3.63645L16.8995 2.92626L16.1955 2.21606C15.6769 2.7301 15.1611 3.24679 14.6479 3.76614L15.3592 4.46901ZM16.8995 2.92626L17.6035 3.63645C18.0977 3.14652 18.493 2.81416 18.7949 2.61245L18.2395 1.78089L17.684 0.949337C17.2316 1.25157 16.7335 1.68279 16.1955 2.21606L16.8995 2.92626ZM18.2395 1.78089L18.7949 2.61245C18.8985 2.54327 18.8779 2.56674 18.7979 2.59746C18.7733 2.60693 18.6921 2.63744 18.5787 2.65064C18.5035 2.65938 18.16 2.69395 17.8416 2.43212C17.463 2.12089 17.4675 1.69871 17.4883 1.54042C17.5092 1.38202 17.5643 1.27155 17.5789 1.24246C17.6305 1.13962 17.6773 1.10234 17.5916 1.19889C17.5362 1.26121 17.4502 1.35235 17.3279 1.47624L18.0396 2.1787L18.7514 2.88117C18.8843 2.74646 18.998 2.62708 19.087 2.52696C19.1455 2.46106 19.2811 2.3094 19.366 2.14026C19.389 2.0946 19.4489 1.97056 19.4712 1.8016C19.4934 1.63274 19.4958 1.20299 19.1117 0.887211C18.7877 0.620819 18.4352 0.653833 18.3476 0.664033C18.2216 0.678682 18.1245 0.713647 18.0805 0.730576C17.9229 0.791142 17.7691 0.892524 17.684 0.949337L18.2395 1.78089ZM18.0396 2.1787L17.3279 1.47624C16.8178 1.99304 16.3073 2.50944 15.7964 3.02544L16.507 3.72903L17.2176 4.43262C17.7293 3.91588 18.2405 3.39873 18.7514 2.88117L18.0396 2.1787ZM16.507 3.72903L15.7964 3.02544C15.284 3.54294 14.7729 4.06165 14.263 4.58158L14.9769 5.28179L15.6908 5.982C16.1985 5.46433 16.7075 4.94787 17.2176 4.43262L16.507 3.72903ZM14.9769 5.28179L14.263 4.58158C13.7565 5.09793 13.2475 5.61166 12.7357 6.12277L13.4424 6.83029L14.1491 7.53782C14.6657 7.02185 15.1796 6.50325 15.6908 5.982L14.9769 5.28179ZM13.4424 6.83029L12.7357 6.12277C12.2204 6.63755 11.7063 7.15367 11.1937 7.67113L11.9041 8.37493L12.6145 9.07873C13.1247 8.56376 13.6362 8.05012 14.1491 7.53782L13.4424 6.83029ZM11.9041 8.37493L11.1937 7.67113C10.597 8.27342 10.1567 8.95013 9.9855 9.70701L10.9608 9.92765L11.9362 10.1483C11.9998 9.86733 12.1883 9.50889 12.6145 9.07873L11.9041 8.37493ZM10.9608 9.92765L9.9855 9.70701C9.76628 10.676 10.1889 11.5248 10.8452 12.184L11.5538 11.4785L12.2625 10.7729C11.8934 10.4022 11.9206 10.2171 11.9362 10.1483L10.9608 9.92765ZM11.5538 11.4785L10.8452 12.184C11.359 12.7 11.874 13.2149 12.3901 13.7286L13.0955 13.0198L13.801 12.311C13.287 11.7994 12.7741 11.2867 12.2625 10.7729L11.5538 11.4785ZM13.0955 13.0198L12.3901 13.7286C12.903 14.239 13.4134 14.7518 13.9214 15.267L14.6335 14.5648L15.3455 13.8627C14.8331 13.3431 14.3182 12.8258 13.801 12.311L13.0955 13.0198ZM14.6335 14.5648L13.9214 15.267C14.4319 15.7846 14.9426 16.302 15.4535 16.8192L16.1649 16.1164L16.8763 15.4136C16.3658 14.8969 15.8555 14.3799 15.3455 13.8627L14.6335 14.5648ZM16.1649 16.1164L15.4535 16.8192C15.9638 17.3358 16.4738 17.8528 16.9835 18.3701L17.6959 17.6683L18.4082 16.9665C17.898 16.4485 17.3873 15.9309 16.8763 15.4136L16.1649 16.1164ZM17.6959 17.6683L16.9835 18.3701C17.1044 18.4928 17.1935 18.5876 17.255 18.6571C17.3278 18.7394 17.3294 18.7501 17.3078 18.7146C17.2998 18.7013 17.2821 18.671 17.263 18.6274C17.2467 18.5899 17.211 18.5019 17.1951 18.3802C17.1798 18.2633 17.1707 18.0181 17.3216 17.7604C17.4886 17.4753 17.7489 17.3461 17.9435 17.3002C18.1143 17.2599 18.2511 17.2766 18.3071 17.2854C18.3732 17.2958 18.4213 17.311 18.4431 17.3183C18.4859 17.3329 18.5056 17.3443 18.49 17.3363L18.0343 18.2264L17.5786 19.1166C17.634 19.145 17.7124 19.1825 17.8015 19.2126C17.8337 19.2236 18.0916 19.3201 18.4027 19.2467C18.608 19.1983 18.8759 19.0639 19.0474 18.7712C19.2028 18.5057 19.1952 18.2502 19.1781 18.1204C19.1476 17.8875 19.0425 17.718 19.018 17.6776C18.8893 17.4654 18.6425 17.2043 18.4082 16.9665L17.6959 17.6683ZM18.0343 18.2264L18.49 17.3363C18.3666 17.2731 18.0712 17.0481 17.5707 16.5292L16.8509 17.2235L16.1312 17.9178C16.6398 18.445 17.1333 18.8886 17.5786 19.1166L18.0343 18.2264ZM16.8509 17.2235L17.5707 16.5292C17.062 16.0019 16.5487 15.4792 16.0308 14.9611L15.3235 15.668L14.6163 16.375C15.1258 16.8847 15.6308 17.399 16.1312 17.9178L16.8509 17.2235ZM15.3235 15.668L16.0308 14.9611C15.5161 14.4462 15.0003 13.9323 14.4835 13.4195L13.7792 14.1293L13.0748 14.8392C13.5897 15.3501 14.1035 15.862 14.6163 16.375L15.3235 15.668ZM13.7792 14.1293L14.4835 13.4195C13.9723 12.9122 13.4661 12.4 12.9649 11.8829L12.2468 12.5788L11.5287 13.2747C12.0389 13.8013 12.5543 14.3228 13.0748 14.8392L13.7792 14.1293ZM12.2468 12.5788L12.9649 11.8829C12.4488 11.3503 11.9294 10.8382 11.4067 10.3465L10.7215 11.0748L10.0364 11.8032C10.5358 12.2731 11.0333 12.7635 11.5287 13.2747L12.2468 12.5788ZM10.7215 11.0748L11.4067 10.3465C11.0307 9.99272 10.5293 9.70746 9.92134 9.72736C9.32179 9.74699 8.83828 10.0568 8.47711 10.4187L9.18488 11.1251L9.89265 11.8316C9.96612 11.758 10.0129 11.7293 10.0295 11.7207C10.0423 11.7141 10.0255 11.725 9.98678 11.7263C9.94712 11.7276 9.92326 11.7175 9.92505 11.7183C9.93144 11.7212 9.96959 11.7404 10.0364 11.8032L10.7215 11.0748ZM9.18488 11.1251L8.47711 10.4187C7.96022 10.9366 7.44724 11.4583 6.93816 11.9839L7.65647 12.6796L8.37478 13.3753C8.87689 12.8569 9.38284 12.3424 9.89265 11.8316L9.18488 11.1251ZM7.65647 12.6796L6.93816 11.9839C6.43892 12.4994 5.9327 13.0079 5.4195 13.5096L6.11853 14.2247L6.81755 14.9398C7.34378 14.4254 7.86286 13.9039 8.37478 13.3753L7.65647 12.6796ZM6.11853 14.2247L5.4195 13.5096C4.89435 14.0229 4.37516 14.5422 3.86192 15.0673L4.57709 15.7663L5.29226 16.4652C5.79485 15.951 6.30328 15.4425 6.81755 14.9398L6.11853 14.2247ZM4.57709 15.7663L3.86192 15.0673C3.35517 15.5858 2.84713 16.1031 2.33781 16.6191L3.0495 17.3216L3.76119 18.0241C4.27283 17.5057 4.78319 16.9861 5.29226 16.4652L4.57709 15.7663ZM3.0495 17.3216L2.33781 16.6191C2.09479 16.8653 1.90226 17.0443 1.75631 17.1654C1.58994 17.3035 1.54768 17.3122 1.59689 17.2928L1.96275 18.2235L2.32862 19.1542C2.59185 19.0507 2.83772 18.867 3.0336 18.7044C3.24989 18.5249 3.49373 18.295 3.76119 18.0241L3.0495 17.3216ZM1.96275 18.2235L1.59689 17.2928C1.59831 17.2923 1.6901 17.2534 1.82782 17.2435C1.91826 17.237 2.4846 17.2214 2.76506 17.784C2.87846 18.0115 2.87426 18.2198 2.86138 18.3301C2.84818 18.4433 2.81765 18.5267 2.8015 18.5666C2.7835 18.611 2.76628 18.6425 2.75755 18.6578C2.74806 18.6744 2.7412 18.6845 2.73944 18.6871C2.73884 18.688 2.7635 18.6538 2.83707 18.5716C2.90506 18.4956 2.99804 18.3971 3.11902 18.2742L2.40626 17.5728L1.6935 16.8714C1.44555 17.1233 1.21866 17.3673 1.08679 17.5607C1.05239 17.6112 0.994041 17.7015 0.947785 17.8157C0.924465 17.8733 0.889592 17.9721 0.874868 18.0982C0.860476 18.2215 0.857584 18.4405 0.975114 18.6763C1.26385 19.2555 1.84977 19.2471 1.9711 19.2384C2.1397 19.2263 2.2737 19.1758 2.32862 19.1542L1.96275 18.2235ZM2.40626 17.5728L3.11902 18.2742C3.62821 17.7568 4.13795 17.2399 4.64824 16.7235L3.93697 16.0206L3.2257 15.3177C2.71442 15.835 2.20368 16.3529 1.6935 16.8714L2.40626 17.5728ZM3.93697 16.0206L4.64824 16.7235C5.15622 16.2095 5.66728 15.6985 6.18142 15.1906L5.47862 14.4792L4.77583 13.7678C4.25601 14.2814 3.7393 14.798 3.2257 15.3177L3.93697 16.0206ZM5.47862 14.4792L6.18142 15.1906C6.70522 14.6731 7.22149 14.1482 7.73023 13.6158L7.00726 12.9249L6.28428 12.2341C5.7888 12.7526 5.28598 13.2638 4.77583 13.7678L5.47862 14.4792ZM7.00726 12.9249L7.73023 13.6158C8.2256 13.0974 8.72843 12.5864 9.23872 12.0828L8.53629 11.3711L7.83385 10.6593C7.30966 11.1767 6.79314 11.7016 6.28428 12.2341L7.00726 12.9249ZM8.53629 11.3711L9.23872 12.0828C9.9268 11.4038 10.3341 10.5024 9.98944 9.49807L9.04357 9.82262L8.0977 10.1472C8.1178 10.2058 8.11639 10.242 8.10073 10.2898C8.07963 10.3542 8.0158 10.4798 7.83385 10.6593L8.53629 11.3711ZM9.04357 9.82262L9.98944 9.49807C9.74651 8.79007 9.2931 8.14728 8.69713 7.5626L7.99682 8.27644L7.29651 8.99028C7.7381 9.4235 7.98252 9.81149 8.0977 10.1472L9.04357 9.82262ZM7.99682 8.27644L8.69713 7.5626C8.18178 7.05702 7.67014 6.54777 7.1622 6.03487L6.45166 6.73852L5.74112 7.44218C6.25583 7.96192 6.77429 8.47796 7.29651 8.99028L7.99682 8.27644ZM6.45166 6.73852L7.1622 6.03487C6.65516 5.52287 6.1528 5.00624 5.65512 4.48498L4.93184 5.17554L4.20857 5.86611C4.71466 6.39617 5.22551 6.92153 5.74112 7.44218L6.45166 6.73852ZM4.93184 5.17554L5.65512 4.48498C5.14707 3.95287 4.63203 3.42768 4.10998 2.90941L3.40545 3.61908L2.70091 4.32874C3.21029 4.83444 3.71284 5.3469 4.20857 5.86611L4.93184 5.17554ZM3.40545 3.61908L4.10998 2.90941C3.59817 2.40129 3.09058 1.889 2.58722 1.37253L1.87108 2.07048L1.15494 2.76844C1.66597 3.29278 2.1813 3.81288 2.70091 4.32874L3.40545 3.61908ZM1.87108 2.07048L2.58722 1.37253C2.46545 1.24759 2.38409 1.15982 2.33562 1.10388C2.31062 1.07502 2.30444 1.06616 2.30879 1.07213C2.311 1.07515 2.32305 1.09169 2.33889 1.11845C2.34984 1.13693 2.39004 1.20532 2.42145 1.30595C2.43617 1.3531 2.55054 1.70244 2.33807 2.08014C2.06826 2.55973 1.58765 2.59004 1.44182 2.58487C1.28414 2.57928 1.17054 2.53582 1.14542 2.52632C1.10377 2.51056 1.07611 2.49624 1.06865 2.49233C1.05283 2.48405 1.08461 2.50072 1.1944 2.5792L1.77591 1.76566L2.35743 0.952124C2.24534 0.872004 2.11468 0.782421 1.99586 0.720247C1.96264 0.70287 1.91294 0.678339 1.85298 0.655658C1.80953 0.639227 1.68132 0.59211 1.51274 0.586128C1.35603 0.580567 0.868236 0.613771 0.594968 1.09952C0.379025 1.48337 0.493648 1.84214 0.512334 1.90199C0.57069 2.08891 0.67523 2.22644 0.693365 2.25128C0.735367 2.30882 0.781691 2.36463 0.82405 2.41352C0.910314 2.51309 1.02311 2.63318 1.15494 2.76844L1.87108 2.07048ZM1.77591 1.76566L1.1944 2.5792C1.57553 2.85163 2.0039 3.2278 2.47948 3.72024L3.1988 3.02556L3.91811 2.33088C3.38402 1.77784 2.8638 1.31408 2.35743 0.952124L1.77591 1.76566ZM3.1988 3.02556L2.47948 3.72024C2.98685 4.24561 3.49707 4.76816 4.01013 5.2879L4.7218 4.58539L5.43347 3.88287C4.92553 3.36832 4.42042 2.85099 3.91811 2.33088L3.1988 3.02556ZM4.7218 4.58539L4.01013 5.2879C4.52443 5.8089 5.04295 6.32572 5.56571 6.83836L6.26587 6.12438L6.96604 5.41039C6.45101 4.90534 5.94016 4.39616 5.43347 3.88287L4.7218 4.58539ZM6.26587 6.12438L5.56571 6.83836C6.08128 7.34395 6.59327 7.85308 7.10168 8.36575L7.81173 7.6616L8.52178 6.95745C8.00682 6.43818 7.48824 5.92249 6.96604 5.41039L6.26587 6.12438ZM7.81173 7.6616L7.10168 8.36575C7.61096 8.8793 8.10102 9.37874 8.57189 9.8641L9.28963 9.16778L10.0074 8.47146C9.53106 7.98052 9.03586 7.47584 8.52178 6.95745L7.81173 7.6616ZM9.28963 9.16778L8.57189 9.8641C8.92744 10.2306 9.42175 10.5399 10.0408 10.5241C10.6421 10.5088 11.1238 10.1913 11.4779 9.83788L10.7716 9.13004L10.0652 8.4222C9.98947 8.49776 9.94236 8.52656 9.92719 8.53447C9.92066 8.53788 9.92354 8.53559 9.93542 8.53232C9.94774 8.52891 9.96643 8.52538 9.98984 8.52478C10.0134 8.52418 10.0359 8.52671 10.0555 8.53122C10.0746 8.53563 10.0863 8.54086 10.0897 8.54255C10.0949 8.54506 10.0658 8.53169 10.0074 8.47146L9.28963 9.16778Z" fill="#2D2926"/>
</svg>
