<svg xmlns="http://www.w3.org/2000/svg" viewBox="0 0 100 100">
  <circle cx="50" cy="50" r="45" fill="#EAC054"/>
  <circle cx="50" cy="50" r="25" fill="#E87722"/>
  <circle cx="50" cy="50" r="12" fill="#C13A28"/>
  <!-- Sun rays -->
  <g fill="#E87722">
    <ellipse cx="50" cy="8" rx="8" ry="15" transform="rotate(0 50 50)"/>
    <ellipse cx="50" cy="8" rx="8" ry="15" transform="rotate(45 50 50)"/>
    <ellipse cx="50" cy="8" rx="8" ry="15" transform="rotate(90 50 50)"/>
    <ellipse cx="50" cy="8" rx="8" ry="15" transform="rotate(135 50 50)"/>
    <ellipse cx="50" cy="8" rx="8" ry="15" transform="rotate(180 50 50)"/>
    <ellipse cx="50" cy="8" rx="8" ry="15" transform="rotate(225 50 50)"/>
    <ellipse cx="50" cy="8" rx="8" ry="15" transform="rotate(270 50 50)"/>
    <ellipse cx="50" cy="8" rx="8" ry="15" transform="rotate(315 50 50)"/>
  </g>
</svg>