 <svg id="Layer_2" data-name="Layer 2" xmlns="http://www.w3.org/2000/svg" viewBox="0 0 965.97 264.65">
                        <defs>
                            <style>
                            .cls-1 {
                                fill: #2d2a26;
                            }
                            </style>
                        </defs>
                        <g id="Content">
                            <path class="cls-1" d="M474.59,138.16c-10.83-3.66-28.55-15.43-21.35-32.35,7.16-16.82,35.25-13.03,34.41,4.98-.11,2.32-.76,4.48-1.76,6.55-.82,1.69-2.68,3.7-2.05,5.64,2.06,6.37,17.97,6.86,23.46,6.23,7.95-.83,18.72-5.64,15.85-14.5-3.54-10.89-19.13-14.7-28.5-18.18-10.56-3.92-22.29-6.96-30.87-14.63-6.59-5.9-10.95-15.19-9.98-24.12,1-9.24,7.83-16.09,15.72-20.33,4.69-2.39,9.87-4.18,17.86-5.18,6.26-.78,12.51-.58,18.75.39,3.62.6,8.81,1.43,13.31,1.92,4.99.55,7.54-.98,10.58-5.71,3.06-4.38,5.92-5.93,9.01-5.15,1.56.2,3.05,2.09,3.87,5.66,2.1,9,5.57,18.57,10.23,26.41,2.7,4.53,2.59,7.12,1.04,8.8-1.69,1.82-4.22,2.2-9.25-1.58-.05.01-7.32-5.38-7.29-5.4-5.96-4.62-13.66-7.55-20.99-9.14-4.46-.96-14.26-2.33-17.91,2.09-.59.72-1.02,1.59-1.24,2.64-1.16,5.59,6.4,7.73,10.46,9.23,20.14,7.45,55.94,13.4,54.08,42.97-2.49,39.51-58.23,42.74-87.44,32.74ZM390.98,243.32c4.79,4.31,14.25,4.59,21.5,3.41,4.99-.81,11.88-2.82,16.35-7.75.66-.72,1.45-1.7,1.77-2.84.31-1.1-.1-2.65-.93-3.52-.39-.41-1.05-.85-1.97-.64-.55.13-1.06.45-1.57.79-.42.28-.83.57-1.25.86-1.26.87-2.56,1.78-3.97,2.46-1.48.71-5.18,2.13-7.73-.04-1.51-1.29-2.31-3.52-2.31-6.46v-31.41c0-1.11.22-2.39,1.96-2.39l9.93.12c.99,0,1.67-.5,2.03-1.5l1.7-4.93c.31-.83.22-1.13.15-1.24-.13-.19-.52-.23-.82-.23h-14.56c-.22,0-.4-.18-.4-.4v-19.12c0-.7-.11-1.2-.37-1.69-.32-.71-.86-1.21-1.55-1.44-.25-.08-.51-.13-.77-.13-.42,0-.84.11-1.21.32l-.19.12c-.48.31-1.08.69-1.99,1.89-7.76,10.07-15.2,16.97-23.41,21.73-.33.19-.66.37-.99.54-1.63.86-2.91,1.54-2.72,3.43.16,1.64,1.71,2.52,3.08,2.52h4.91c1.26,0,2.07.89,2.07,2.27v36.46c-.21,3.72.88,6.67,3.24,8.79ZM132.6,233.57c-.11,3.09-1.13,4.76-3.55,5.74-1.1.47-1.66.74-2.21,1.71-.67,1.17-.51,2.92.37,3.97.92,1.11,2.67.85,4.21.62.39-.06.77-.11,1.11-.14,3.5-.32,7.14-.48,10.88-.48,4.01,0,8.14.18,12.37.55,1,.09,2,.18,3,.29,1.07,0,2-.61,2.5-1.66.57-1.18.42-2.62-.36-3.59-.49-.61-1.26-.97-1.94-1.27-2.8-1.22-3.83-2.72-3.94-5.74v-45.3c.04-.56-.11-.98-.41-1.21-.37-.28-.96-.3-1.67-.06-8.57,4.42-16.99,7.59-24.98,9.4-.89.39-1.48,1.55-1.39,2.87.08,1.47.61,2.5,1.45,2.82l.53.25.66.22c2.45,1.3,3.48,3.09,3.48,6.01v23.12l-.1,1.9ZM199.94,207.05c1.08-1.03,2.33-1.56,3.58-1.56,1.1,0,2.2.41,3.17,1.23,2.22,1.89,2.85,5.32,3.27,7.59.24,1.33.48,2.66.71,4,1.3,7.43,2.64,15.12,6.3,21.82,1.42,2.6,3.72,4.7,6.48,5.9,2.29,1,5.01,1.41,8.3,1.25,7.94-.39,11.97-4.79,13-8.43.12-.39.2-.88-.03-1.19h0c-.25-.33-.78-.4-1.18-.4-4.5,0-5.54-1.93-7.7-9.53-.48-1.99-1.05-4.33-1.62-6.71-1.13-4.66-2.31-9.49-2.85-11.96l-1.05-4.77c-2.59-11.69-7.82-17.14-16.01-16.65-3.79.23-7.06,1.58-9.99,4.14-2.09,1.82-3.54,3.74-5.22,5.95l-.19.25c-.43.57-.79,1.14-1.11,1.64-.26.41-.48.76-.67,1-.11.13-.28.18-.44.13-.16-.06-.27-.21-.27-.37v-12.34c.04-.54-.1-.95-.4-1.18-.36-.28-.96-.3-1.67-.06-8.53,4.35-16.91,7.47-24.86,9.25-.89.38-1.47,1.52-1.39,2.82.08,1.44.61,2.45,1.44,2.77l.52.24.66.21c2.44,1.28,3.46,3.04,3.46,5.92v21.59c0,.39,0,.78.01,1.17.05,3.52.1,7.15-3.65,8.66-1.09.46-1.65.73-2.2,1.68-.66,1.15-.5,2.86.36,3.89.92,1.09,2.66.84,4.19.61.39-.06.76-.11,1.1-.14,7.23-.65,15.01-.62,23.14.07.99.09,1.99.18,2.99.28,1.07,0,2-.6,2.5-1.65.56-1.17.42-2.55-.36-3.5-.48-.59-1.25-.95-1.93-1.25-2.79-1.2-3.82-2.68-3.93-5.66v-16.63c0-4.62,1.19-8.02,3.52-10.11ZM92.35,139.66c3.84.32,5.44.72,8.77,4.42,5.29,6.94,10.69,3.99,12.16-2.09l12.77-48.29c1.74-6.78.89-10.9-3.51-11.77-2.53-.5-5.25,0-7.3,4.26,0,0-15.85,38.29-35.67,38.65-4.44.08-7.49,0-12.36-.13-8.33-.21-8.28-2.77-8.28-12.8V23.44c0-4.4,1.58-6.27,4.99-7.34,3.9-1.23,8.25-1.07,8.25-6.45,0-6.92-7.52-6.48-12.54-6.04-14.71,1.3-30.27,1.38-44.47.24-.82-.08-1.64-.17-2.45-.24C7.69,3.17.18,2.74.18,9.65c0,5.37,4.35,5.22,8.25,6.45,3.4,1.07,4.84,2.94,4.84,7.34l.18,92.9c0,2.42-.22,5.49-1.23,7.71C9.54,129.92,0,126.43,0,134.9c0,3.94,3.13,6.81,8.42,6.29,23.38-3.04,52.38-4,83.93-1.54ZM225.83,140.34c-1.27-.18-2.51-.41-3.75-.75-3.12-.85-6.13-2.16-8.86-3.9-2.4-1.53-4.58-3.43-6.52-5.51l1.06-.82c-9.27,7.97-19.79,10.98-30.61,11.4-3.73.21-7.46,0-11-.63-21.45-3.57-32.46-17.2-31.9-33.99.56-18.88,15.11-32.52,45.14-32.52,5.77,0,10.82,1.05,10.82,1.05,0,0-2.05-8.29-3.54-12.38-3.77-10.33-9.33-13.64-18.47-11.33-5.06,1.2-8.6,4.85-11.94,8.6-1.53,1.72-2.98,3.33-5.41,3.57-3.2.31-6.34-1.68-6.71-5.03-.56-3.99,3.17-12.59,16.79-21.4,5.04-3.15,10.63-5.24,16.6-6.29,27.42-4.62,44.32,5.69,50.92,28.11,6.78,23.03,10.67,36.8,15.25,51.53,3.09,9.94,5.91,10.97,11.08,10.97,2.66,0,3.59,1.47,2.88,3.74,0,.02-.01.04-.02.05-2.65,9.44-14.09,17.83-31.81,15.52ZM199.71,109.5c-.19-.84-.37-1.47-.56-2.31l-4.66-17.41-1.64-.39c-1.47-.35-2.96-.61-4.47-.71-.79-.05-1.54-.05-2.29.05-8.39,1.05-13.99,11.33-10.63,21.82,2.05,5.87,5.97,9.65,10.45,10.49,9.89,2.1,15.11-3.78,13.8-11.54ZM331.84,233.26c.58-1.21.89-2.36.95-3.53.22-4.84-3.31-7.39-6.69-8.16-.79-.18-1.62-.27-2.46-.27-3.71,0-7.63,1.8-9.33,5.8-1.19,2.82-1.2,5.57-.03,8.19,2.13,4.76,7.65,8.06,11.73,9.45,11.27,3.87,28.98,4.16,39.62-2.95,5.4-3.6,8.33-8.68,8.74-15.09.86-13.74-13.05-18.21-24.23-21.81-2.06-.66-4-1.28-5.74-1.93l-.61-.22c-2.45-.88-6.15-2.2-5.48-5.41.13-.63.39-1.19.77-1.65,2.24-2.73,8.02-1.83,10.4-1.31,3.29.72,8.03,2.2,11.89,5.21.01,0,.02.02.03.03.28.23,3.71,2.78,3.99,2.97.02,0,.03.02.04.03,2.88,2.17,3.99,1.64,4.65.93.53-.57,1.04-1.66-.63-4.47-2.44-4.12-4.49-9.43-5.77-14.94-.46-2.01-1.25-2.8-1.83-2.88-1.62-.41-3.09.46-4.66,2.73-1.81,2.84-3.39,3.69-6.28,3.38-2.54-.28-5.47-.75-7.46-1.08-3.57-.56-7.06-.63-10.37-.22-3.94.49-6.89,1.35-9.85,2.87-2.92,1.58-7.93,5.12-8.57,11.11-.5,4.6,1.64,9.78,5.45,13.21,3.85,3.46,8.92,5.24,13.82,6.95,1.12.39,2.23.78,3.31,1.19.72.27,1.51.54,2.35.83,5.37,1.86,12.06,4.17,13.83,9.63.51,1.59.34,3.06-.52,4.38-1.73,2.67-5.76,3.97-8.67,4.28-3.04.35-12.28.12-13.54-3.77-.32-.98.25-1.91.75-2.73.15-.25.3-.5.42-.73ZM271.42,219.71c-.38.41-.43,1.1-.37,2.43-.06.79.3,3.04.9,5.02,1.34,4.39,3.75,7.46,7.17,9.11,3.74,1.81,7.79,2.09,11.41.79,3.52-1.26,6.51-3.49,9.21-5.7.91-.74,2.13-1.1,2.98-.86.57.16.98.58,1.21,1.24,1.36,3.92-3.89,8.66-7.21,10.85-3.36,2.21-7.5,3.71-12.29,4.44-1.69.26-3.46.39-5.26.39h-.04c-8.17,0-16.26-2.81-22.2-7.69-5.96-5.13-9.41-12.52-9.72-20.8-.34-9.2,3.17-18.18,9.63-24.65,5.64-5.65,13.45-8.85,21.16-8.85,1.45,0,2.9.11,4.33.35,6.33,1.1,11.53,3.46,15.47,7.01,6.73,6.07,8.53,14.77,8.86,20.99.05,1.06.07,2.15.05,3.24-.05,1.53-.59,1.84-1.46,1.85l-32.22.41c-.69.02-1.24.04-1.6.43ZM271.3,207.35c.04,3.06.25,3.85,2.1,3.85h.03l11.04-.19c.68.01,1.17-.05,1.51-.39.34-.35.4-.88.38-1.55l.06-1.65s0-.03,0-.05l-.07-.84c0-.75-.1-1.53-.21-2.3-1.04-7.38-4.37-9.18-7-9.38-3.72-.13-6.51,3.13-7.56,8.94-.28,1.77-.3,3.16-.3,3.54ZM573.07,85.25c.54-30.52,23.61-56.23,60.77-56.23s60.23,25.71,60.77,56.23c0,31.94-21.05,56.23-60.77,56.23s-60.77-24.29-60.77-56.23ZM615.34,85.25c0,39.8,12.06,39.56,18.5,39.56s18.5.24,18.5-39.56-12.79-39.56-18.5-39.56-18.5.92-18.5,39.56ZM468.82,238.36c-1.85.56-3.45,1.05-3.45,3.53,0,.92.34,1.72.98,2.3.83.76,2.14,1.09,3.67.95,9.09-1.13,18.94-1.7,29.16-1.7,7.04,0,14.25.27,21.5.81,2.43.19,3.46.46,5.55,2.68,1.32,1.66,2.73,2.42,4,2.14,1.21-.26,2.23-1.48,2.66-3.18l7.7-27.96c.65-2.43.66-4.18.02-5.2-.37-.59-.97-.96-1.82-1.12-1.2-.23-2.75-.18-3.97,2.26-.38.89-9.79,22.38-21.85,22.59-2.54.04-4.31,0-7-.06h-.47c-5.38-.14-5.38-2.05-5.38-7.72v-51.31c0-2.58.95-3.92,3.29-4.63.44-.13.9-.24,1.34-.34,1.95-.46,3.35-.79,3.35-3.01,0-.96-.27-1.68-.84-2.19-1.32-1.22-3.94-1.11-6.29-.91-8.91.76-18.21.81-26.87.14-.5-.05-.99-.1-1.48-.14-2.35-.2-4.97-.31-6.29.91-.56.52-.84,1.24-.84,2.19,0,2.22,1.41,2.55,3.35,3.01.44.1.9.21,1.34.34,2.3.7,3.2,2,3.2,4.63l.11,53.77c0,1.98-.26,3.54-.78,4.63-.78,1.63-2.42,2.14-3.88,2.58ZM564.68,164.99c-2.19,0-4.49.49-6.69,1.44-6.64,2.87-10.35,9.1-8.28,13.89.99,2.3,3.17,3.93,6.12,4.6,3,.68,6.44.28,9.67-1.12,3.24-1.4,5.88-3.63,7.44-6.28,1.54-2.61,1.84-5.31.84-7.61-.99-2.3-3.17-3.93-6.12-4.6-.96-.22-1.96-.32-2.98-.32ZM552.1,233.57c-.11,3.09-1.13,4.76-3.55,5.74-1.1.47-1.66.74-2.21,1.71-.67,1.17-.51,2.91.37,3.97.92,1.11,2.67.85,4.21.62.39-.06.77-.11,1.11-.14,3.51-.32,7.14-.48,10.88-.48,4.01,0,8.14.18,12.37.55,1,.09,2,.18,3,.29,1.07,0,2-.61,2.5-1.66.56-1.18.42-2.62-.36-3.59-.49-.6-1.26-.97-1.94-1.27-2.8-1.22-3.83-2.72-3.94-5.74v-45.3c.04-.56-.11-.98-.41-1.21-.37-.28-.96-.3-1.67-.06-8.57,4.42-16.99,7.59-24.98,9.4-.89.39-1.48,1.55-1.4,2.87.08,1.47.61,2.5,1.45,2.82l.52.25.66.22c2.45,1.3,3.47,3.09,3.47,6.01v23.12l-.1,1.9ZM146,183.81c3.24-1.4,5.88-3.63,7.44-6.28,1.54-2.61,1.84-5.31.84-7.61-2.07-4.79-9.16-6.35-15.8-3.48-6.64,2.87-10.35,9.1-8.28,13.89,2.07,4.79,9.16,6.35,15.8,3.48ZM446.26,46.29c10.89-1.53,8.38-15.59-.69-14.03-9.33,1.3-19.78,1.08-28.6-.05-9.48-1.21-11.26,10.35-2.45,12.87,3.03.87,3.52.63,1.56,3.98-2.38,4.07-23.15,38.99-23.15,38.99l-21.46-36.82c-1.8-3.23-1.1-3.37,1.13-3.64,4.01-.49,7.44-.59,10.31-3.03,1.74-1.48,2.67-3.44,2.74-5.73.12-4.18-3.24-7.11-7.36-6.62-17.24,2.03-34.72,1.9-52.37,0-6.8,0-8.94,6.37-6.68,10.64l15.14,24.47-12.51,21.14-24.67-42.03c-.26-.45-.03-1.04.47-1.16,2.35-.57,4.42-1.68,5.33-3.18,1.43-2.33,1.04-5.82-.76-7.9-2.46-2.84-7.3-1.4-10.57-1.11-13.99,1.21-28.45,1.1-43.28-.13-3.76-.31-8.3-1.28-10.82,2.51-2.26,3.39-.93,9.13,4.01,10.03,7.28,1.33,8.72,1.67,12.06,6.54l45.74,74.79c-4.98,11.9,3.96,14.52,8.11,14.39,3.33-.1,6.22-2.11,7.99-5.07l30.08-50.49,25.66,42.07c-4.12,11.16,4.4,13.61,8.43,13.49,3.33-.1,6.22-2.11,7.99-5.07,0,0,41.44-69.23,51.32-85.48,1.67-2.74,3.17-3.79,7.3-4.37ZM726.77,239.3h0c-2.8-1.22-3.83-2.72-3.94-5.75v-45.3c.04-.56-.11-.98-.41-1.21-.37-.28-.96-.3-1.67-.06-8.57,4.42-17,7.59-24.98,9.39-.89.39-1.48,1.55-1.39,2.87.08,1.47.61,2.5,1.45,2.82l.53.25.66.22c2.45,1.3,3.48,3.09,3.48,6.01v19.82c-.34,2.54-1.72,4.46-3.69,5.18-1.77.64-3.67.38-5.22-.72-2.15-1.51-3.39-4.44-3.39-8.02v-36.56c.04-.56-.11-.98-.41-1.21-.2-.15-.46-.23-.77-.23-.27,0-.57.06-.9.17-8.57,4.42-17,7.59-24.98,9.39-.89.39-1.48,1.55-1.39,2.87.08,1.47.61,2.5,1.45,2.82l.52.25.66.22c2.02,1.07,3.03,2.45,3.36,4.52v19.98c0,1.55.11,3.13.2,4.66.23,4.59,2.76,8.88,6.77,11.49,4.65,3.02,10.66,3.47,16.49,1.22,2.93-1.19,10.59-6.65,10.67-6.7.12-.09.28-.1.41-.03.13.07.21.2.21.35v5.27c0,.67.28,1.31.77,1.76.48.45,1.11.66,1.78.61,7.75-.62,14.47-.67,20.54-.15,1,.09,2,.18,3,.29,1.07,0,2-.61,2.5-1.66.57-1.18.42-2.62-.36-3.59-.49-.6-1.26-.97-1.94-1.27ZM90.06,175.89c.32,0,.6-.03.87-.05.3-.03.61-.06.91-.06h5.08c.49,0,1,.03,1.52.05.5.03.99.05,1.47.05,7.44.53,13.27,2.94,16.87,6.97l1.36,1.52,2.39,2.49c1.9,2.08,2.29,2.1,3.14,1.85,1.14-.32,1.9-.86,2.25-1.61.36-.78.29-1.8-.23-2.95h0s-7.57-17.16-7.57-17.16c-.69-1.52-1.47-2.39-2.4-2.64-1.05-.29-2.42.17-4.2,1.4-2,1.37-2.3,1.37-5.13,1.37h-48.53c-2.63,0-4.06,1.22-4.15,3.53,0,1.84.92,2.93,1.84,3.19l.72.1.66.24c2.1.71,2.66,1.6,2.97,4.79.1.31.1.67.1,1.01l-.03,53.57c-.12,3.12-1.25,4.79-3.89,5.77-1.22.47-1.84.74-2.45,1.72-.73,1.16-.55,2.89.4,3.94,1.03,1.13,2.98.87,4.69.64.43-.06.84-.11,1.21-.14,3.85-.32,7.85-.48,11.97-.48,4.41,0,8.95.18,13.6.55,1.1.09,2.2.18,3.3.29,1.27,0,2.37-.69,2.89-1.85.51-1.15.33-2.47-.48-3.38-.54-.61-1.39-.98-2.15-1.28-3.07-1.21-4.21-2.72-4.33-5.75v-23.03c.01-2.94.95-3.98,3.6-3.98h2.44c.59,0,1.2,0,1.8.12,2.45.35,4.68,1.04,6.1,1.89,1.45.87,2.54,1.76,3.44,2.79l.68.89,1.77,1.93c1.74,1.88,2.22,2,2.96,1.84,1.03-.18,1.83-.7,2.31-1.5.52-.87.61-1.97.25-3.1l-6.51-18.88c-.13-.25-.27-.31-.54-.42-1.34-.66-2.38-.26-3.38,1.26l-1.29,1.85c-1.27,1.68-2.83,2.24-6.19,2.24h-3.85c-2.31,0-3.59-1.41-3.59-3.98v-9.81c0-5.78.62-7.3,5.29-7.78ZM844.97,240.57c.78.96.92,2.41.36,3.59-.5,1.05-1.43,1.66-2.5,1.66-1-.11-2.01-.2-3-.29-6.07-.52-12.79-.48-20.54.15-.66.05-1.29-.16-1.78-.61-.49-.45-.77-1.09-.77-1.76v-4.46c0-.19-.13-.34-.31-.38-.18-.04-.37.05-.44.22-.15.33-.3.66-.49.98-2.71,4.84-10.81,8.72-19.68,6.85-5.01-1.06-9.54-4.42-12.75-9.45-4.78-7.49-6.12-17.87-3.68-28.48,2.62-11.68,10.06-20.12,19.41-22.01,1.44-.29,2.88-.44,4.31-.44,4.68,0,9.23,1.54,13.13,4.51.12.09.28.11.42.04.14-.07.22-.2.22-.35v-8.23c0-2.92-1.02-4.71-3.47-6.01l-.66-.22-.52-.24c-.84-.33-1.37-1.36-1.45-2.82-.09-1.32.5-2.49,1.39-2.87,7.98-1.8,16.4-4.97,24.98-9.4.71-.25,1.3-.22,1.67.06.3.23.45.65.41,1.21v73.14c.37,2.07,1.47,3.33,3.8,4.34.68.3,1.46.66,1.94,1.27ZM817.79,215.62c0-5.68-1.25-10.8-2.48-12.92-1.54-2.66-4.03-4.25-6.83-4.37-2.8-.12-5.46,1.25-7.15,3.66-1.94,2.73-2.85,7.06-2.85,13.63s.91,10.9,2.85,13.63c1.63,2.31,4.15,3.67,6.82,3.67.11,0,.22,0,.34,0,2.79-.12,5.28-1.71,6.83-4.37,1.23-2.12,2.48-7.25,2.48-12.92ZM655.33,259.4c.78.96.92,2.41.36,3.59-.5,1.05-1.42,1.65-2.52,1.66-1-.1-1.99-.2-2.98-.29-4.22-.36-8.36-.55-12.37-.55-3.74,0-7.38.16-10.88.48-.34.03-.72.09-1.11.14-1.54.23-3.29.49-4.21-.63-.86-1.04-1.02-2.82-.37-3.97.55-.97,1.11-1.24,2.21-1.71,2.42-.98,3.44-2.65,3.55-5.74l.1-1.9v-12.13c0-.19-.13-.35-.31-.39-.18-.04-.37.05-.44.22-.19.43-.39.85-.63,1.27-2.71,4.84-10.81,8.72-19.68,6.85-5.01-1.06-9.54-4.42-12.75-9.45-4.78-7.49-6.12-17.87-3.68-28.48,2.62-11.68,10.06-20.12,19.41-22.01,7.22-1.46,14.23.68,19.73,6.04.45.44.89.84,1.35,1.23.1.09.24.12.37.08.71-.22,1.42-.45,2.12-.69,4.8-1.69,9.79-3.87,14.78-6.44.71-.24,1.3-.22,1.67.06.3.23.45.65.41,1.21v64.52c.11,3.03,1.14,4.53,3.94,5.74.68.3,1.46.66,1.94,1.27ZM627.85,215.12c0-5.68-1.25-10.8-2.48-12.92-1.54-2.66-4.03-4.25-6.83-4.37-2.77-.12-5.46,1.25-7.15,3.66-1.94,2.73-2.85,7.07-2.85,13.63s.91,10.9,2.85,13.63c1.63,2.31,4.15,3.67,6.82,3.67.11,0,.22,0,.34,0,2.79-.12,5.28-1.71,6.83-4.37,1.23-2.12,2.48-7.24,2.48-12.92ZM858.73,12.67c-1.33-6.96-6.07-11.61-13.12-12.5-9.43-1.18-19.13,3.86-20.29,14-.34,2.95.35,6.03,1.91,8.55,1.77,2.86,4.35,4.05,7.25,5.51,1.96.99,3.31,2.74,3.25,5.03-.13,4.92-6.26,9.18-8.16,11.34-.44.5-.81,1.1-.91,1.76-.09.61,0,1.11.22,1.52.57,1.04,1.88,1.4,2.97,1.52,1.65.18,3.35-.12,4.96-.5,15.92-3.82,24.91-20.59,21.93-36.22ZM911.82,62.62c-4.05-1.51-11.62-3.66-10.46-9.27.22-1.05.65-1.93,1.24-2.65,3.64-4.44,13.44-3.07,17.91-2.1,7.33,1.59,15.03,4.54,20.99,9.18-.03.02,7.24,5.44,7.29,5.43,5.03,3.8,7.57,3.41,9.25,1.58,1.55-1.68,1.66-4.29-1.04-8.84-4.66-7.87-8.14-17.48-10.23-26.53-.82-3.58-2.32-5.49-3.87-5.69-3.09-.79-5.96.78-9.01,5.17-3.03,4.75-5.58,6.29-10.58,5.74-4.5-.49-9.69-1.33-13.31-1.93-6.24-.98-12.48-1.18-18.75-.39-7.99,1-13.17,2.8-17.86,5.2-7.89,4.26-14.72,11.14-15.72,20.42-.97,8.97,3.39,18.3,9.98,24.23,8.58,7.71,20.31,10.76,30.87,14.7,9.37,3.49,24.96,7.32,28.5,18.26,2.88,8.9-7.89,13.73-15.85,14.57-5.49.64-21.4.14-23.46-6.26-.63-1.95,1.23-3.97,2.05-5.67,1-2.08,1.65-4.25,1.76-6.58.84-18.1-27.25-21.91-34.41-5.01-7.2,17,10.53,28.82,21.35,32.49,29.21,10.04,84.95,6.8,87.44-32.89,1.86-29.71-33.94-35.69-54.08-43.17ZM747.32,184.93c3,.68,6.43.28,9.67-1.12,3.24-1.4,5.88-3.63,7.44-6.28,1.54-2.61,1.84-5.31.84-7.61-.99-2.3-3.17-3.93-6.12-4.6-.96-.22-1.96-.32-2.98-.32-2.19,0-4.49.49-6.69,1.44-6.64,2.87-10.35,9.1-8.28,13.89.99,2.3,3.17,3.93,6.12,4.6ZM888.5,204.9c-2.06-.66-4-1.29-5.74-1.93l-.61-.22c-2.45-.88-6.15-2.2-5.48-5.41.13-.63.39-1.18.77-1.65,2.24-2.73,8.02-1.83,10.4-1.31,3.29.71,8.03,2.2,11.89,5.21.01,0,.02.02.03.03.28.23,3.71,2.78,3.99,2.97.02,0,.03.02.04.03,2.88,2.17,3.99,1.64,4.65.93.53-.57,1.04-1.66-.63-4.47-2.44-4.12-4.49-9.43-5.77-14.94-.46-2.01-1.25-2.8-1.83-2.88-1.62-.41-3.09.46-4.66,2.73-1.81,2.84-3.4,3.69-6.28,3.38-2.54-.28-5.48-.75-7.46-1.08-3.57-.56-7.06-.63-10.37-.22-3.94.49-6.89,1.35-9.85,2.87-2.92,1.58-7.93,5.12-8.57,11.11-.5,4.6,1.64,9.78,5.45,13.21,3.85,3.46,8.92,5.24,13.82,6.95,1.12.39,2.23.78,3.31,1.19.72.27,1.52.54,2.35.83,5.37,1.86,12.06,4.17,13.83,9.63.51,1.59.34,3.06-.52,4.38-1.73,2.67-5.76,3.97-8.67,4.28-3.05.35-12.28.12-13.54-3.77-.32-.98.25-1.91.75-2.73.15-.25.3-.5.42-.73.58-1.21.89-2.36.95-3.53.22-4.84-3.31-7.39-6.69-8.16-.79-.18-1.62-.27-2.46-.27-3.71,0-7.63,1.8-9.32,5.8-1.19,2.82-1.2,5.57-.03,8.19,2.13,4.76,7.65,8.06,11.73,9.45,11.27,3.87,28.98,4.16,39.63-2.95,5.39-3.6,8.33-8.68,8.74-15.09.86-13.74-13.05-18.21-24.23-21.81ZM792.74,127.28c2.64,4.88,6.92,8.8,11.99,11.04,4.77,2.11,10.08,2.59,15.23,2.33,13.26-.67,21.78-7.86,24.02-15.83,0-.02.01-.04.02-.05.35-1.14.29-2.08-.19-2.74-.48-.64-1.37-1.01-2.69-1.01-7.6,0-9.33-3.18-13.16-16.8-2.52-10.65-6.56-27.11-8.04-33.88-.63-2.89-1.25-5.79-1.89-8.68-4.78-21.85-14.54-31.72-29.52-30.82-7.04.43-13.11,3.04-18.39,7.7-3.95,3.48-6.7,7.22-9.81,11.37-1.43,1.91-2.44,3.82-3.19,4.77v-22.42c.18-2.52-1.61-3.99-4.66-2.94-15.04,7.76-29.92,13.47-44.6,16.78-1.97.84-3.22,3.15-3.04,5.87.18,3.15,1.43,5.03,3.04,5.66l.9.42,1.25.42c3.94,2.1,5.73,5.03,5.73,10.07v39.23c0,6.86.91,14.35-6.09,17.2-2,.85-3.18,1.4-4.3,3.36-1.34,2.35-1,5.82.73,7.9,2.36,2.84,7,1.4,10.13,1.11,13.41-1.21,27.25-1.1,41.46.13,1.78.15,3.57.32,5.36.51,5.29,0,7.57-6.68,4.46-10.54-.95-1.18-2.38-1.88-3.74-2.47-4.84-2.1-6.45-4.62-6.63-9.65v-30.2c0-6.31,1.18-13.39,6.09-17.83,3.56-3.46,7.97-3.35,11.2-.58,3.68,3.17,4.81,8.82,5.64,13.38,2.92,15.95,4.85,32.67,12.68,47.15ZM769.98,239.3h0c-2.8-1.22-3.83-2.72-3.94-5.74v-45.3c.04-.56-.11-.98-.41-1.21-.37-.28-.96-.3-1.67-.06-8.57,4.42-16.99,7.59-24.98,9.4-.89.39-1.48,1.55-1.39,2.87.08,1.47.61,2.5,1.45,2.82l.53.25.66.22c2.45,1.3,3.47,3.09,3.47,6.01v23.12l-.1,1.9c-.11,3.09-1.13,4.76-3.55,5.74-1.1.47-1.66.74-2.21,1.71-.67,1.17-.51,2.91.37,3.97.92,1.11,2.67.85,4.21.62.39-.06.77-.11,1.11-.14,3.51-.32,7.14-.48,10.88-.48,4.01,0,8.14.18,12.37.55,1,.09,2,.18,3,.29,1.07,0,2-.61,2.5-1.66.57-1.18.42-2.62-.36-3.59-.49-.6-1.26-.97-1.94-1.27Z"/>
                        </g>
                    </svg>