<?xml version="1.0" encoding="UTF-8"?>
<svg id="Layer_1" xmlns="http://www.w3.org/2000/svg" version="1.1" viewBox="0 0 100 125">
  <g fill="#3A5F3A">
    <path d="M34.87,92.36l-13.24,27.99c-1.56,3.29-5.5,4.71-8.82,3.16-3.23-1.51-4.66-5.31-3.27-8.55l12.24-28.44c1.56-3.62,5.77-5.3,9.42-3.76,3.65,1.55,5.33,5.74,3.78,9.36-.03.07-.07.16-.11.23h0Z"/>
    <path d="M22.78,19.14c-1.78-1.3-4.21-.88-5.42.96l-4.24,6.39c-1.22,1.83-2.14,5.11-2.04,7.3l1.32,32.24c.09,2.19,1.96,4,4.17,4.01h1.2c2.2.03,4.5-1.69,5.1-3.78l10.06-35c.6-2.11-.35-4.9-2.12-6.2l-8.02-5.91h-.01Z"/>
    <path d="M51.9,24.86c6.59.37,12.29-4.97,12.46-11.68.17-6.72-5.14-12.35-11.76-12.41-6.57-.08-12.17,5.52-12.14,12.12.03,6.31,5.1,11.62,11.42,11.98h.01Z"/>
    <path d="M86.7,53.08l-38.36-23.7c-.24-.15-.52-.31-.79-.42-3.75-1.75-8.23-.17-10.05,3.53-.9,1.05-1.59,2.3-1.95,3.72l-7.74,29.65c-.32,1.25-.37,2.5-.21,3.69-.47,2.85.59,5.87,3.02,7.79l21.35,16.92v23.4c0,3.64,2.97,6.59,6.63,6.59s6.63-2.95,6.63-6.59v-26.56c0-1.67-.65-3.36-1.94-4.63l-.28-.28-16.65-16.5,5.72-21.93,27.68,12.91-3.63,60.48c-.09,1.55,1.1,2.89,2.67,2.99h.17c1.5,0,2.74-1.16,2.83-2.66l3.58-59.52c1.15-.32,2.18-1.04,2.86-2.12,1.44-2.3.72-5.32-1.59-6.75h.04Z"/>
  </g>
</svg>
