<?xml version="1.0" encoding="UTF-8"?>
<svg id="Layer_1" xmlns="http://www.w3.org/2000/svg" version="1.1" viewBox="0 0 100 125">
  <g fill="#4A90A4">
    <path d="M59.7,23.38c-.12,4.5-3.93,8.09-8.32,7.84-4.22-.24-7.6-3.81-7.62-8.04-.02-4.43,3.72-8.19,8.1-8.14,4.41.05,7.96,3.83,7.84,8.34Z"/>
    <path d="M83.15,24.89c-.78-.6-1.88-.53-2.46.15l-.51.66c-6.7,8.66-9.06,18.06-5.27,20.99,3.79,2.94,12.29-1.71,19-10.36l.51-.66c.52-.73.31-1.81-.47-2.41l-10.8-8.36h0Z"/>
    <path d="M31,109.55c.77.6,1.88.53,2.46-.15l.51-.66c6.7-8.66,9.06-18.06,5.27-20.99s-12.29,1.71-19,10.37l-.51.66c-.52.73-.31,1.81.47,2.41,0,0,10.8,8.36,10.8,8.36Z"/>
    <path d="M29.03,101.55c-.44,0-.88-.15-1.23-.46-.8-.68-.89-1.88-.2-2.67l53.02-61.87c.68-.79,1.88-.89,2.67-.2.79.68.89,1.88.21,2.67l-53.02,61.86c-.37.44-.91.66-1.44.66h0Z"/>
    <path d="M35.05,63.66c0-2.21.22-4,.45-6.15,2.3-21.62,7.96-23.32,9.21-23.6,1.41-.32,3.05.02,4.7.83,3.12,1.54,3.15,6.65,1.61,9.77-.05.11-2.11,5.7-2.61,13.67-.1,1.5-.43,5.08-.43,5.08l-12.92.39h-.01Z"/>
    <path d="M50.82,35.89l6.36,12.2,9.57,6.99c1.43,1.12,1.69,3.18.57,4.62-1.03,1.31-2.85,1.64-4.26.82l-9.79-6.23c-.32-.19-10.29-13.47-10.29-13.47-1.69-2.23-1.86-4.74.37-6.43s5.4-1.26,7.09.97c.13.17.26.37.36.55l.02-.02Z"/>
    <path d="M94.97,66.17l-2.83-.26-2.83-.17-5.65-.35-5.65-.21-5.65-.12c-2.88-.07-12.35.04-12.35.04l-17.05,20.21h6l.07-.04h.71c7.54-.04,15.07-.58,22.61-1.76,7.54-1.19,15.07-2.87,22.61-6.04l1.65-.69c1.82-.77,3.17-2.5,3.36-4.6.28-3.05-1.97-5.74-5.01-6.02h.01Z"/>
    <path d="M49.75,65.2c-7.54.21-15.07.47-22.61.97-3.77.22-7.54.53-11.31.85l-5.65.58-2.83.3-2.83.37c-1.84.25-3.5,1.48-4.19,3.34-1,2.69.37,5.68,3.06,6.68l1.13.42c7.54,2.8,15.07,4.22,22.61,5.25,3.19.4,6.38.69,9.57.9l16.91-19.73-3.87.07h0Z"/>
  </g>
</svg>
