<?xml version="1.0" encoding="UTF-8"?>
<svg xmlns="http://www.w3.org/2000/svg" viewBox="0 0 100 125">
  <path fill="#3A5F3A" d="M39.46,72.67l-9.91,21.08c-1.17,2.48-4.12,3.55-6.6,2.38-2.42-1.14-3.49-4-2.45-6.44l9.16-21.42c1.17-2.73,4.32-3.99,7.05-2.83,2.73,1.17,3.99,4.32,2.83,7.05-.02.05-.05.12-.08.17Z"/>
  <path fill="#3A5F3A" d="M30.41,17.53c-1.33-.98-3.15-.66-4.06.72l-3.17,4.81c-.91,1.38-1.6,3.85-1.53,5.5l.99,24.28c.07,1.65,1.47,3.01,3.12,3.02h.9c1.65.02,3.37-1.27,3.82-2.85l7.53-26.36c.45-1.59-.26-3.69-1.59-4.67l-6-4.45Z"/>
  <g fill="#3A5F3A">
    <path d="M52.21,21.84c4.93.28,9.2-3.74,9.33-8.8.13-5.06-3.85-9.3-8.8-9.35-4.92-.06-9.11,4.16-9.09,9.13.02,4.75,3.82,8.75,8.55,9.02Z"/>
    <path d="M78.26,43.09l-28.71-17.85c-.18-.11-.39-.23-.59-.32-2.81-1.32-6.16-.13-7.52,2.66-.67.79-1.19,1.73-1.46,2.8l-5.79,22.33c-.24.94-.28,1.88-.16,2.78-.35,2.15.44,4.42,2.26,5.87l15.98,12.74v17.62c0,2.74,2.22,4.96,4.96,4.96s4.96-2.22,4.96-4.96v-20c0-1.26-.49-2.53-1.45-3.49l-.21-.21-12.46-12.43,4.28-16.52,20.72,9.72-2.72,45.55c-.07,1.17.82,2.18,2,2.25.04,0,.09,0,.13,0,1.12,0,2.05-.87,2.12-2l2.68-44.83c.86-.24,1.63-.78,2.14-1.6,1.08-1.73.54-4.01-1.19-5.08Z"/>
  </g>
</svg>
