<?xml version="1.0" encoding="UTF-8"?>
<svg id="Layer_1" xmlns="http://www.w3.org/2000/svg" version="1.1" viewBox="0 0 160 160">
  <!-- Generator: Adobe Illustrator 30.1.0, SVG Export Plug-In . SVG Version: 2.1.1 Build 136)  -->
  <defs>
    <style>
      .st0 {
        fill: #8ece01;
      }
    </style>
  </defs>
  <path class="st0" d="M60.69,118.68l-17.16,36.27c-2.02,4.26-7.13,6.1-11.43,4.09-4.19-1.96-6.04-6.88-4.24-11.08l15.86-36.85c2.02-4.69,7.48-6.87,12.21-4.87,4.73,2.01,6.91,7.44,4.9,12.13-.04.09-.09.21-.14.3h0Z"/>
  <path class="st0" d="M45.03,23.8c-2.31-1.68-5.46-1.14-7.02,1.24l-5.49,8.28c-1.58,2.37-2.77,6.62-2.64,9.46l1.71,41.77c.12,2.84,2.54,5.18,5.4,5.2h1.55c2.85.04,5.83-2.19,6.61-4.9l13.04-45.35c.78-2.73-.45-6.35-2.75-8.03l-10.39-7.66h-.01Z"/>
  <path class="st0" d="M82.76,31.22c8.54.48,15.92-6.44,16.15-15.13C99.12,7.37,92.24.08,83.67,0c-8.51-.1-15.77,7.15-15.73,15.7.04,8.18,6.61,15.06,14.8,15.52h.03Z"/>
  <path class="st0" d="M127.85,67.78l-49.7-30.71c-.31-.19-.67-.4-1.02-.54-4.86-2.27-10.66-.22-13.02,4.57-1.17,1.36-2.06,2.98-2.53,4.82l-10.03,38.42c-.41,1.62-.48,3.24-.27,4.78-.61,3.69.76,7.61,3.91,10.09l27.66,21.92v30.32c0,4.72,3.85,8.54,8.59,8.54s8.59-3.82,8.59-8.54v-34.42c0-2.16-.84-4.35-2.51-6l-.36-.36-21.57-21.38,7.41-28.42,35.87,16.73-4.7,78.37c-.12,2.01,1.43,3.74,3.46,3.87h.22c1.94,0,3.55-1.5,3.67-3.45l4.64-77.12c1.49-.41,2.82-1.35,3.71-2.75,1.87-2.98.93-6.89-2.06-8.75h.06Z"/>
</svg>