<?xml version="1.0" encoding="UTF-8"?>
<svg id="Layer_1" xmlns="http://www.w3.org/2000/svg" version="1.1" viewBox="0 0 160 160">
  <!-- Generator: Adobe Illustrator 30.1.0, SVG Export Plug-In . SVG Version: 2.1.1 Build 136)  -->
  <defs>
    <style>
      .st0 {
        fill: #02a6e1;
      }
    </style>
  </defs>
  <path class="st0" d="M95.52,14.06c-.19,7.59-6.29,13.64-13.31,13.22-6.75-.4-12.16-6.42-12.19-13.55C69.99,6.25,75.97-.08,82.98,0c7.06.08,12.74,6.46,12.55,14.06Z"/>
  <path class="st0" d="M133.05,16.6c-1.25-1.01-3.01-.89-3.94.25l-.82,1.11c-10.72,14.6-14.5,30.44-8.43,35.38,6.06,4.96,19.67-2.88,30.4-17.46l.82-1.11c.83-1.23.5-3.05-.75-4.06l-17.28-14.09h0v-.02Z"/>
  <path class="st0" d="M49.6,159.31c1.23,1.01,3.01.89,3.94-.25l.82-1.11c10.72-14.6,14.5-30.44,8.43-35.38-6.06-4.94-19.67,2.88-30.4,17.48l-.82,1.11c-.83,1.23-.5,3.05.75,4.06,0,0,17.28,14.09,17.28,14.09Z"/>
  <path class="st0" d="M46.45,145.83c-.7,0-1.41-.25-1.97-.78-1.28-1.15-1.42-3.17-.32-4.5l84.84-104.29c1.09-1.33,3.01-1.5,4.27-.34,1.26,1.15,1.42,3.17.34,4.5l-84.84,104.27c-.59.74-1.46,1.11-2.3,1.11h0l-.02.02Z"/>
  <path class="st0" d="M56.08,81.96c0-3.73.35-6.74.72-10.37,3.68-36.44,12.74-39.31,14.74-39.78,2.26-.54,4.88.03,7.52,1.4,4.99,2.6,5.04,11.21,2.58,16.47-.08.19-3.38,9.61-4.18,23.04-.16,2.53-.69,8.56-.69,8.56l-20.67.66h-.02v.02Z"/>
  <path class="st0" d="M81.31,35.15l10.18,20.56,15.31,11.78c2.29,1.89,2.7,5.36.91,7.79-1.65,2.21-4.56,2.76-6.82,1.38l-15.67-10.5c-.51-.32-16.47-22.71-16.47-22.71-2.7-3.76-2.98-7.99.59-10.84s8.64-2.12,11.35,1.64c.21.29.42.62.58.93,0,0,.03-.03.03-.03Z"/>
  <path class="st0" d="M151.96,86.19l-4.53-.44-4.53-.29-9.04-.59-9.04-.35-9.04-.2c-4.61-.12-19.76.07-19.76.07l-27.28,34.07h9.6l.11-.07h1.14c12.07-.07,24.11-.98,36.18-2.97,12.07-2.01,24.11-4.84,36.18-10.18l2.64-1.16c2.91-1.3,5.07-4.21,5.38-7.75.45-5.14-3.15-9.68-8.02-10.15h.02v.02Z"/>
  <path class="st0" d="M79.6,84.55c-12.07.35-24.11.79-36.18,1.64-6.03.37-12.07.89-18.1,1.43l-9.04.98-4.53.51-4.53.62c-2.94.42-5.6,2.49-6.7,5.63-1.6,4.53.59,9.57,4.9,11.26l1.81.71c12.07,4.72,24.11,7.11,36.18,8.85,5.1.67,10.21,1.16,15.31,1.52l27.06-33.26-6.19.12h.02Z"/>
</svg>