<svg width="153" height="145" viewBox="0 0 153 145" fill="none" xmlns="http://www.w3.org/2000/svg">
<path d="M87.6664 82.6242H88.9345V135.248H82.4329V91.3737C84.8191 88.7685 86.5944 85.7943 87.678 82.6242H87.6664ZM106.629 108.665C107.044 109.057 107.598 109.253 108.163 109.288C107.598 109.253 107.044 109.069 106.629 108.665ZM132.025 72.6759V47.7186C132.025 47.6495 132.025 47.5803 132.013 47.5112H132.025C132.025 41.828 125.269 37.0095 115.909 35.2804H118.687V28.652H110.065V34.6348C109.488 34.6118 108.9 34.5887 108.312 34.5887C108.946 34.5887 109.569 34.6118 110.191 34.6348C107.517 35.0498 105.292 38.6118 104.474 43.4534C103.805 43.4765 103.125 43.488 102.456 43.5226C105.822 43.3266 109.188 43.3036 112.555 43.4419C112.589 44.2834 112.612 45.1249 112.612 46.001C112.612 46.0817 112.612 46.1739 112.612 46.2546V86.924C112.612 96.8608 108.312 109.057 108.301 109.08V109.288C108.912 109.288 109.523 109.069 109.972 108.642L126.123 93.8175C126.561 93.4256 126.964 92.9991 127.344 92.5841V124.066H132.013V72.6068V72.6529L132.025 72.6759ZM54.6514 10.3923H53.3603V2.23071H44.3687V10.5075H54.6514V10.3923ZM55.8618 10.5075C37.602 10.5075 22.7891 18.5653 22.7891 28.5137H22.8121C22.8121 28.6059 22.7891 28.6981 22.7891 28.8018V75.1428C22.7891 75.9036 22.8352 76.6529 22.9159 77.4022V135.259H29.4174V91.6388L29.3483 91.4429C29.8785 92.0192 30.4203 92.5726 30.9967 93.1144L53.5217 113.783C53.9367 114.175 54.4439 114.429 54.9857 114.567C55.2739 114.636 55.562 114.683 55.8502 114.683V114.394C55.8502 114.394 49.8444 97.3335 49.8444 83.5003V26.7845C49.8444 26.6692 49.8444 26.5424 49.8444 26.4272C49.8444 25.2052 49.8789 24.0179 49.925 22.8536C54.8012 22.6461 59.6889 22.6922 64.5651 22.9919C63.3778 15.7526 59.9195 10.5075 55.8502 10.5075H55.8618Z" fill="white"/>
<path d="M152.476 129.472C152.476 138.049 118.342 145 76.2321 145C34.1217 145 0 138.049 0 129.472C0 125.127 8.78404 121.196 22.9169 118.371V135.248H29.4185V117.219C36.946 116.02 45.5917 115.109 54.9982 114.556C55.2864 114.625 55.5746 114.671 55.8628 114.671V114.383C55.8628 114.383 49.8569 97.3219 49.8569 83.4888V26.7845C49.8569 26.6692 49.8569 26.5424 49.8569 26.4272C49.8569 25.2052 49.8915 24.0179 49.9376 22.8536C54.8138 22.6461 59.7015 22.6922 64.5777 22.9919C63.3903 15.7526 59.932 10.5075 55.8628 10.5075C59.8513 10.5075 63.6554 10.911 67.2059 11.6142C68.7276 11.9139 70.2147 12.2597 71.6326 12.6747C73.3617 13.1935 74.9986 13.7929 76.5203 14.4615C76.6471 14.5191 76.7739 14.5653 76.9007 14.6114C77.2811 14.7843 77.6269 14.9687 77.9958 15.1532C78.4108 15.3607 78.8488 15.5566 79.2523 15.7757C79.4944 15.9025 79.7134 16.0523 79.944 16.1906C80.4281 16.4788 80.9353 16.7555 81.3849 17.0552C82.3532 17.7008 83.2178 18.3809 84.0132 19.0956C84.8778 19.868 85.6847 20.6634 86.3303 21.5049C86.7222 22.0006 87.0565 22.5193 87.3562 23.038C87.3793 23.0842 87.4138 23.1187 87.4369 23.1533C88.4052 24.8479 88.924 26.6462 88.924 28.5137H88.9009C88.8894 28.3869 88.8317 28.2716 88.7972 28.1563C88.8548 28.3638 88.924 28.5828 88.924 28.8018V40.0758C89.4312 39.6839 89.9845 39.3035 90.5724 38.9461C91.8981 38.1392 93.3851 37.4014 95.0336 36.802C95.2526 36.7213 95.4832 36.6521 95.7137 36.583C97.27 36.0527 98.9299 35.6147 100.705 35.2919H98.319V28.6635H110.054V34.6463C109.478 34.6233 108.89 34.6002 108.302 34.6002C108.936 34.6002 109.558 34.6233 110.181 34.6463C107.506 35.0613 105.282 38.6234 104.463 43.465C103.795 43.488 103.114 43.4995 102.446 43.5341C105.812 43.3382 109.178 43.3151 112.544 43.4534C112.579 44.295 112.602 45.1365 112.602 46.0126C112.602 46.0933 112.602 46.1855 112.602 46.2662V86.9356C112.602 96.8724 108.302 109.069 108.29 109.092V109.299C108.29 109.299 108.198 109.276 108.152 109.276C107.587 109.241 107.034 109.057 106.619 108.654L90.4687 93.8291C89.9153 93.3219 89.3966 92.7801 88.924 92.2152V82.6127H87.6559C86.5723 85.7828 84.7971 88.7569 82.4109 91.3622C81.8691 91.9616 81.3042 92.538 80.7048 93.0913L58.1798 113.76C57.8801 114.049 57.5228 114.268 57.1308 114.417C63.2289 114.095 69.6268 113.922 76.2205 113.922C78.307 113.922 80.3705 113.945 82.4109 113.979V135.236H88.9124V114.141C103.552 114.636 116.786 115.985 127.334 117.933V124.066H132.003V118.867C144.683 121.645 152.453 125.357 152.453 129.449L152.476 129.472ZM43.9663 79.3619V25.6202C43.9663 25.505 43.9663 25.3897 43.9663 25.2859C43.9663 24.6058 43.9893 23.9257 44.0239 23.2571C41.9835 23.43 39.9432 23.649 37.9028 23.9141C37.9028 23.9487 37.9028 23.9833 37.9028 24.0179C37.9028 24.1332 37.9028 24.2369 37.9028 24.3522V76.872C37.9028 86.1748 42.0758 93.4141 46.5369 98.6707C45.096 93.1144 43.9778 85.7482 43.9778 79.3619H43.9663ZM121.19 44.5255C121.19 44.4448 121.19 44.3641 121.19 44.2834C121.19 44.2834 121.19 44.2373 121.19 44.2143C119.726 44.0298 118.273 43.8684 116.798 43.7416C116.821 44.2143 116.844 44.6984 116.844 45.1941C116.844 45.2748 116.844 45.3555 116.844 45.4362V83.9845C116.844 88.561 116.037 93.8521 115.011 97.8292C118.204 94.0481 121.201 88.8722 121.201 82.1977V44.537L121.19 44.5255ZM54.6524 10.3923H66.6987V2.23071H53.3613V10.3923H54.6524Z" fill="#FFC72C"/>
<path d="M137.825 33.3897C136.891 32.6981 135.658 32.5021 134.517 32.8364L123.369 36.2486C122.378 35.822 121.341 35.4301 120.234 35.0958V28.9977C120.234 28.4328 119.819 27.9487 119.266 27.8565C112.706 26.7613 105.375 26.7152 98.7234 27.6605V10.1501C98.7234 8.82438 98.0778 7.59093 96.9597 6.76094C95.6916 5.81568 93.9971 5.53901 92.4408 6.01165L73.7085 11.7409C72.2906 11.2682 70.815 10.8302 69.2703 10.4728V2.70322C69.2703 1.98851 68.7747 1.37755 68.0715 1.22769C60.2903 -0.40923 51.4602 -0.40923 43.6675 1.22769C42.9643 1.37755 42.4687 1.98851 42.4687 2.70322V10.4728C40.924 10.8302 39.4484 11.2682 38.0305 11.7409L19.2982 6.01165C17.7535 5.53901 16.0589 5.81568 14.7793 6.76094C13.6612 7.59093 13.0156 8.82438 13.0156 10.1501V74.7853C13.0156 77.0332 15.0099 78.8546 17.4538 78.8546H21.327C22.1109 83.9383 24.451 88.7914 27.9093 92.5609V133.738H24.4164C24.3357 118.878 24.866 102.774 22.9178 88.1458C21.3501 99.4544 21.4538 112.031 21.4193 123.466V135.236C21.4193 136.066 22.0879 136.746 22.9178 136.746H29.4194C30.2494 136.746 30.9295 136.066 30.9295 135.236V95.4889C32.8431 97.2526 35.3215 99.5351 37.823 101.841V125.08L32.3589 127.466L39.6329 127.501C40.2899 127.501 40.8317 126.971 40.8317 126.302V104.607C43.4139 106.982 45.754 109.138 47.1835 110.44L50.2037 113.218L51.7138 114.602C52.9818 116.02 55.1606 116.873 57.0626 116.365C57.9387 116.262 59.1491 115.432 59.6679 114.901L62.6881 112.123L68.7401 106.578C69.3626 105.956 70.1349 105.241 70.9995 104.457V126.003C70.9073 126.752 71.403 127.49 72.1984 127.478L79.4723 127.443L74.0082 125.057V101.76C76.2445 99.7657 78.6999 97.587 80.9017 95.4543V135.213C80.9017 136.043 81.5703 136.723 82.4118 136.723H88.9134C89.7434 136.723 90.4235 136.055 90.4235 135.213V95.3391C91.1267 95.9961 91.8299 96.6301 92.5331 97.2757C92.5331 97.2757 93.9625 98.5898 95.2651 99.7887V116.7L91.4264 118.452L96.6599 118.556C97.1672 118.556 97.5822 118.152 97.5822 117.645V101.921L106.09 109.702C107.346 110.625 109.018 110.671 110.309 109.818C111.957 108.457 115.565 104.999 117.214 103.547L119.081 101.841V117.657C119.081 118.175 119.508 118.567 120.003 118.556L125.237 118.452L121.398 116.7V99.708L126.171 95.3275V124.054C126.171 124.7 126.689 125.219 127.335 125.219H132.004C132.649 125.219 133.168 124.7 133.168 124.054V115.605C133.133 107.397 133.214 98.3708 132.004 90.2439C130.805 98.3823 130.874 107.385 130.839 115.605V122.902H128.488V93.022C130.563 90.6127 132.153 87.6617 132.787 84.4916C132.845 84.238 132.868 83.9498 132.914 83.6731H135.819C137.618 83.6731 139.082 82.3244 139.082 80.6644V35.8912C139.082 34.9114 138.609 34.0007 137.79 33.4012L137.825 33.3897ZM98.7119 30.0352C104.902 29.113 111.738 29.0784 117.905 30.0006V34.4964C114.966 33.8162 111.727 33.4473 108.314 33.4473C104.902 33.4473 101.721 33.8508 98.7119 34.554V30.0467V30.0352ZM45.4774 3.94821C52.1403 2.71475 59.5872 2.71475 66.2501 3.94821V9.87339C62.9878 9.30854 59.4949 9.00882 55.8637 9.00882C52.2325 9.00882 48.7397 9.30854 45.4774 9.87339V3.94821ZM21.3155 28.6634C21.3155 28.6634 21.2809 28.7441 21.2809 28.8017L21.0965 61.6554C21.0849 64.3529 21.0388 71.3616 21.0273 73.9784C20.9927 74.6009 21.0273 75.2234 21.0504 75.8459H17.4538C16.6814 75.8459 16.0243 75.3617 16.0243 74.7853V10.1501C16.0243 9.65437 16.3586 9.3316 16.5661 9.18174C17.0618 8.81285 17.765 8.69758 18.4105 8.89355L33.5232 13.5161C25.9957 17.0666 21.2809 22.427 21.2809 28.5135C21.2809 28.5712 21.304 28.6173 21.3155 28.6634ZM66.2271 103.881C64.0138 105.875 58.8494 110.728 56.6822 112.607C55.7139 113.149 54.8954 112.607 54.2499 111.927L52.7398 110.544C50.8146 108.792 45.6388 104.019 43.656 102.221L31.6097 91.143C27.9554 87.581 25.4309 82.8777 24.7623 77.8632C24.2205 67.0042 24.5202 40.1449 24.3127 28.8248C24.3127 28.7671 24.2896 28.7326 24.2781 28.6864C24.2781 28.6288 24.3127 28.5827 24.3127 28.5366C24.3127 19.5912 38.7683 12.0291 55.8753 12.0291C70.2848 12.0291 82.7692 17.3894 86.3658 24.4212C67.1147 20.3866 46.6071 19.6257 27.7018 25.5509C47.0797 23.7872 66.4576 23.1993 85.4666 27.4991C86.3082 27.6374 87.069 27.8334 87.2995 28.6173C87.3111 28.6749 87.3226 28.7326 87.3226 28.7902V29.2628V31.3147L87.2073 64.1684L87.1727 72.3761C87.4148 77.5866 86.4695 82.6817 83.5185 87.0277C80.6596 91.535 70.1349 100.008 66.2501 103.893L66.2271 103.881ZM87.4263 133.749H83.9335V92.4111C85.0401 91.2007 85.9623 90.0479 86.5848 89.0335C86.8845 88.5724 87.1612 88.1113 87.4263 87.6271V133.738V133.749ZM90.3543 27.6029C89.9048 21.8967 85.3283 16.8937 78.1927 13.5161L93.3054 8.89355C93.9394 8.69758 94.6426 8.81285 95.1498 9.18174C95.3573 9.3316 95.6916 9.65437 95.6916 10.1501V35.384C93.8357 35.9949 92.1181 36.7327 90.5849 37.6088L90.5618 31.3032V29.2513C90.6079 28.6864 90.5273 28.1216 90.3543 27.6029ZM90.6886 64.1569L90.5964 40.3409C92.0604 39.361 93.778 38.508 95.6916 37.8278V74.7969C95.6916 75.3732 95.0345 75.8574 94.2622 75.8574H90.7002C90.7924 72.6758 90.5734 66.9581 90.6771 64.1569H90.6886ZM130.862 78.209V81.2408C130.782 86.0709 128.372 90.4744 124.637 93.633C121.698 96.3304 113.997 103.397 111.15 106.002C110.793 106.336 109.801 107.236 109.467 107.547C109.006 108.123 108.13 108.342 107.519 107.893C104.579 105.195 96.9597 98.2094 94.1239 95.6042C92.8674 94.4399 91.5763 93.2871 90.435 92.1344V78.8776C90.435 78.8776 90.435 78.8661 90.435 78.8546H94.2622C96.706 78.8546 98.7003 77.0217 98.7003 74.7853V45.0441C103.415 44.779 108.13 44.5369 112.856 44.6291C118.09 44.6061 123.277 44.998 128.511 45.3784C118.954 42.3006 108.672 41.3899 98.7003 42.6118V36.9172C101.674 36.1794 104.925 35.7529 108.303 35.7529C120.534 35.7529 130.862 41.1363 130.862 47.511C130.862 47.5456 130.874 47.5802 130.885 47.6148C130.885 47.6494 130.862 47.6839 130.862 47.7185C130.862 52.2143 130.862 74.1628 130.862 78.209ZM136.788 80.699C136.788 81.0679 136.361 81.3791 135.842 81.3791H133.145C133.295 78.3013 133.087 74.6816 133.179 72.1109V47.7185C133.179 47.7185 133.156 47.6494 133.156 47.6148C133.156 47.5802 133.179 47.5456 133.179 47.511C133.179 43.6839 130.597 40.2717 126.367 37.7587L135.185 35.0612C135.612 34.9229 136.096 35.0036 136.43 35.2572C136.569 35.3609 136.788 35.5684 136.788 35.8797V80.6875V80.699Z" fill="#2D2926"/>
</svg>
